<mxfile host="Electron" modified="2024-04-18T16:46:00.431Z" agent="Mozilla/5.0 (Windows NT 10.0; Win64; x64) AppleWebKit/537.36 (KHTML, like Gecko) draw.io/24.1.0 Chrome/120.0.6099.109 Electron/28.1.0 Safari/537.36" etag="jfP3ktpZ23Hn1vYGA06k" version="24.1.0" type="device">
  <diagram id="C5RBs43oDa-KdzZeNtuy" name="Page-1">
    <mxGraphModel dx="674" dy="463" grid="1" gridSize="10" guides="1" tooltips="1" connect="1" arrows="1" fold="1" page="1" pageScale="1" pageWidth="827" pageHeight="1169" math="0" shadow="0">
      <root>
        <mxCell id="WIyWlLk6GJQsqaUBKTNV-0" />
        <mxCell id="WIyWlLk6GJQsqaUBKTNV-1" parent="WIyWlLk6GJQsqaUBKTNV-0" />
        <mxCell id="NhKCORuuIXIp8gJYlxsO-2" value="" style="edgeStyle=orthogonalEdgeStyle;rounded=0;orthogonalLoop=1;jettySize=auto;html=1;" parent="WIyWlLk6GJQsqaUBKTNV-1" source="NhKCORuuIXIp8gJYlxsO-0" target="NhKCORuuIXIp8gJYlxsO-1" edge="1">
          <mxGeometry relative="1" as="geometry" />
        </mxCell>
        <mxCell id="NhKCORuuIXIp8gJYlxsO-17" style="edgeStyle=orthogonalEdgeStyle;rounded=0;orthogonalLoop=1;jettySize=auto;html=1;exitX=1;exitY=0.5;exitDx=0;exitDy=0;entryX=0.5;entryY=0;entryDx=0;entryDy=0;" parent="WIyWlLk6GJQsqaUBKTNV-1" source="NhKCORuuIXIp8gJYlxsO-0" target="NhKCORuuIXIp8gJYlxsO-15" edge="1">
          <mxGeometry relative="1" as="geometry" />
        </mxCell>
        <mxCell id="NhKCORuuIXIp8gJYlxsO-19" value="超过时间未被接受" style="edgeLabel;html=1;align=center;verticalAlign=middle;resizable=0;points=[];" parent="NhKCORuuIXIp8gJYlxsO-17" vertex="1" connectable="0">
          <mxGeometry x="0.2816" relative="1" as="geometry">
            <mxPoint as="offset" />
          </mxGeometry>
        </mxCell>
        <mxCell id="NhKCORuuIXIp8gJYlxsO-0" value="订单创建(开始)&lt;div&gt;status: created&lt;/div&gt;" style="rounded=1;whiteSpace=wrap;html=1;" parent="WIyWlLk6GJQsqaUBKTNV-1" vertex="1">
          <mxGeometry x="20" width="120" height="60" as="geometry" />
        </mxCell>
        <mxCell id="NhKCORuuIXIp8gJYlxsO-4" value="" style="edgeStyle=orthogonalEdgeStyle;rounded=0;orthogonalLoop=1;jettySize=auto;html=1;" parent="WIyWlLk6GJQsqaUBKTNV-1" source="NhKCORuuIXIp8gJYlxsO-1" target="NhKCORuuIXIp8gJYlxsO-3" edge="1">
          <mxGeometry relative="1" as="geometry" />
        </mxCell>
        <mxCell id="NhKCORuuIXIp8gJYlxsO-21" style="edgeStyle=orthogonalEdgeStyle;rounded=0;orthogonalLoop=1;jettySize=auto;html=1;exitX=1;exitY=0.5;exitDx=0;exitDy=0;entryX=0.5;entryY=0;entryDx=0;entryDy=0;" parent="WIyWlLk6GJQsqaUBKTNV-1" source="NhKCORuuIXIp8gJYlxsO-1" target="NhKCORuuIXIp8gJYlxsO-20" edge="1">
          <mxGeometry relative="1" as="geometry" />
        </mxCell>
        <mxCell id="NhKCORuuIXIp8gJYlxsO-22" value="超过时间未支付" style="edgeLabel;html=1;align=center;verticalAlign=middle;resizable=0;points=[];" parent="NhKCORuuIXIp8gJYlxsO-21" vertex="1" connectable="0">
          <mxGeometry x="0.3224" y="-1" relative="1" as="geometry">
            <mxPoint as="offset" />
          </mxGeometry>
        </mxCell>
        <mxCell id="NhKCORuuIXIp8gJYlxsO-1" value="订单接受&lt;br&gt;status: accepted" style="whiteSpace=wrap;html=1;rounded=1;" parent="WIyWlLk6GJQsqaUBKTNV-1" vertex="1">
          <mxGeometry x="220" width="120" height="60" as="geometry" />
        </mxCell>
        <mxCell id="NhKCORuuIXIp8gJYlxsO-6" value="" style="edgeStyle=orthogonalEdgeStyle;rounded=0;orthogonalLoop=1;jettySize=auto;html=1;" parent="WIyWlLk6GJQsqaUBKTNV-1" source="NhKCORuuIXIp8gJYlxsO-3" target="NhKCORuuIXIp8gJYlxsO-5" edge="1">
          <mxGeometry relative="1" as="geometry" />
        </mxCell>
        <mxCell id="NhKCORuuIXIp8gJYlxsO-25" style="edgeStyle=orthogonalEdgeStyle;rounded=0;orthogonalLoop=1;jettySize=auto;html=1;exitX=1;exitY=0.75;exitDx=0;exitDy=0;entryX=0;entryY=0.5;entryDx=0;entryDy=0;" parent="WIyWlLk6GJQsqaUBKTNV-1" source="NhKCORuuIXIp8gJYlxsO-3" target="NhKCORuuIXIp8gJYlxsO-23" edge="1">
          <mxGeometry relative="1" as="geometry" />
        </mxCell>
        <mxCell id="NhKCORuuIXIp8gJYlxsO-27" value="订单退款" style="edgeLabel;html=1;align=center;verticalAlign=middle;resizable=0;points=[];" parent="NhKCORuuIXIp8gJYlxsO-25" vertex="1" connectable="0">
          <mxGeometry x="-0.1946" y="-3" relative="1" as="geometry">
            <mxPoint as="offset" />
          </mxGeometry>
        </mxCell>
        <mxCell id="NhKCORuuIXIp8gJYlxsO-3" value="订单支付&lt;div&gt;status: paid&lt;/div&gt;" style="whiteSpace=wrap;html=1;rounded=1;" parent="WIyWlLk6GJQsqaUBKTNV-1" vertex="1">
          <mxGeometry x="420" width="120" height="60" as="geometry" />
        </mxCell>
        <mxCell id="NhKCORuuIXIp8gJYlxsO-8" value="" style="edgeStyle=orthogonalEdgeStyle;rounded=0;orthogonalLoop=1;jettySize=auto;html=1;" parent="WIyWlLk6GJQsqaUBKTNV-1" source="NhKCORuuIXIp8gJYlxsO-5" target="NhKCORuuIXIp8gJYlxsO-7" edge="1">
          <mxGeometry relative="1" as="geometry" />
        </mxCell>
        <mxCell id="NhKCORuuIXIp8gJYlxsO-28" style="edgeStyle=orthogonalEdgeStyle;rounded=0;orthogonalLoop=1;jettySize=auto;html=1;exitX=1;exitY=0.75;exitDx=0;exitDy=0;entryX=1;entryY=0.5;entryDx=0;entryDy=0;" parent="WIyWlLk6GJQsqaUBKTNV-1" source="NhKCORuuIXIp8gJYlxsO-5" target="NhKCORuuIXIp8gJYlxsO-23" edge="1">
          <mxGeometry relative="1" as="geometry" />
        </mxCell>
        <mxCell id="NhKCORuuIXIp8gJYlxsO-29" value="订单退款" style="edgeLabel;html=1;align=center;verticalAlign=middle;resizable=0;points=[];" parent="NhKCORuuIXIp8gJYlxsO-28" vertex="1" connectable="0">
          <mxGeometry x="-0.2694" y="-1" relative="1" as="geometry">
            <mxPoint as="offset" />
          </mxGeometry>
        </mxCell>
        <mxCell id="NhKCORuuIXIp8gJYlxsO-5" value="订单服务待使用&lt;br&gt;status: not_used" style="whiteSpace=wrap;html=1;rounded=1;" parent="WIyWlLk6GJQsqaUBKTNV-1" vertex="1">
          <mxGeometry x="620" width="120" height="60" as="geometry" />
        </mxCell>
        <mxCell id="NhKCORuuIXIp8gJYlxsO-10" value="" style="edgeStyle=orthogonalEdgeStyle;rounded=0;orthogonalLoop=1;jettySize=auto;html=1;" parent="WIyWlLk6GJQsqaUBKTNV-1" source="NhKCORuuIXIp8gJYlxsO-7" target="NhKCORuuIXIp8gJYlxsO-9" edge="1">
          <mxGeometry relative="1" as="geometry" />
        </mxCell>
        <mxCell id="NhKCORuuIXIp8gJYlxsO-7" value="订单服务生效中&lt;div&gt;status: pending&lt;/div&gt;" style="whiteSpace=wrap;html=1;rounded=1;" parent="WIyWlLk6GJQsqaUBKTNV-1" vertex="1">
          <mxGeometry x="820" width="120" height="60" as="geometry" />
        </mxCell>
        <mxCell id="NhKCORuuIXIp8gJYlxsO-12" value="" style="edgeStyle=orthogonalEdgeStyle;rounded=0;orthogonalLoop=1;jettySize=auto;html=1;" parent="WIyWlLk6GJQsqaUBKTNV-1" source="NhKCORuuIXIp8gJYlxsO-9" target="NhKCORuuIXIp8gJYlxsO-11" edge="1">
          <mxGeometry relative="1" as="geometry" />
        </mxCell>
        <mxCell id="NhKCORuuIXIp8gJYlxsO-31" style="edgeStyle=orthogonalEdgeStyle;rounded=0;orthogonalLoop=1;jettySize=auto;html=1;exitX=1;exitY=0.5;exitDx=0;exitDy=0;entryX=0.5;entryY=0;entryDx=0;entryDy=0;" parent="WIyWlLk6GJQsqaUBKTNV-1" source="NhKCORuuIXIp8gJYlxsO-9" target="NhKCORuuIXIp8gJYlxsO-30" edge="1">
          <mxGeometry relative="1" as="geometry" />
        </mxCell>
        <mxCell id="NhKCORuuIXIp8gJYlxsO-32" value="订单超时未评价" style="edgeLabel;html=1;align=center;verticalAlign=middle;resizable=0;points=[];" parent="NhKCORuuIXIp8gJYlxsO-31" vertex="1" connectable="0">
          <mxGeometry x="0.1971" y="-2" relative="1" as="geometry">
            <mxPoint as="offset" />
          </mxGeometry>
        </mxCell>
        <mxCell id="NhKCORuuIXIp8gJYlxsO-9" value="订单已使用(待评价)&lt;div&gt;status: not_e&lt;span style=&quot;background-color: initial;&quot;&gt;valuated&lt;/span&gt;&lt;/div&gt;" style="whiteSpace=wrap;html=1;rounded=1;" parent="WIyWlLk6GJQsqaUBKTNV-1" vertex="1">
          <mxGeometry x="1020" width="120" height="60" as="geometry" />
        </mxCell>
        <mxCell id="NhKCORuuIXIp8gJYlxsO-11" value="订单已评价(结束)&lt;div&gt;status: evaluated&lt;/div&gt;" style="whiteSpace=wrap;html=1;rounded=1;fillColor=#f8cecc;strokeColor=#b85450;" parent="WIyWlLk6GJQsqaUBKTNV-1" vertex="1">
          <mxGeometry x="1210" width="120" height="60" as="geometry" />
        </mxCell>
        <mxCell id="NhKCORuuIXIp8gJYlxsO-15" value="订单关闭&lt;br&gt;status: timeout_created" style="rounded=1;whiteSpace=wrap;html=1;fillColor=#f8cecc;strokeColor=#b85450;" parent="WIyWlLk6GJQsqaUBKTNV-1" vertex="1">
          <mxGeometry x="120" y="130" width="120" height="60" as="geometry" />
        </mxCell>
        <mxCell id="NhKCORuuIXIp8gJYlxsO-20" value="订单关闭&lt;div&gt;status: timeout_pay&lt;/div&gt;" style="rounded=1;whiteSpace=wrap;html=1;fillColor=#f8cecc;strokeColor=#b85450;" parent="WIyWlLk6GJQsqaUBKTNV-1" vertex="1">
          <mxGeometry x="320" y="130" width="120" height="60" as="geometry" />
        </mxCell>
        <mxCell id="NhKCORuuIXIp8gJYlxsO-23" value="订单关闭&lt;div&gt;status: refunded&lt;/div&gt;" style="rounded=1;whiteSpace=wrap;html=1;fillColor=#f8cecc;strokeColor=#b85450;" parent="WIyWlLk6GJQsqaUBKTNV-1" vertex="1">
          <mxGeometry x="620" y="130" width="120" height="60" as="geometry" />
        </mxCell>
        <mxCell id="NhKCORuuIXIp8gJYlxsO-30" value="订单关闭&lt;div&gt;status: timeout_evaluated&lt;/div&gt;" style="rounded=1;whiteSpace=wrap;html=1;fillColor=#f8cecc;strokeColor=#b85450;" parent="WIyWlLk6GJQsqaUBKTNV-1" vertex="1">
          <mxGeometry x="1110" y="130" width="120" height="60" as="geometry" />
        </mxCell>
        <mxCell id="Mu6bl-6abntceN2pBHRk-37" value="订单创建" style="rounded=1;whiteSpace=wrap;html=1;" vertex="1" parent="WIyWlLk6GJQsqaUBKTNV-1">
          <mxGeometry x="100" y="440" width="120" height="60" as="geometry" />
        </mxCell>
        <mxCell id="Mu6bl-6abntceN2pBHRk-43" value="" style="edgeStyle=orthogonalEdgeStyle;rounded=0;orthogonalLoop=1;jettySize=auto;html=1;exitX=0.5;exitY=1;exitDx=0;exitDy=0;" edge="1" parent="WIyWlLk6GJQsqaUBKTNV-1" source="Mu6bl-6abntceN2pBHRk-37" target="Mu6bl-6abntceN2pBHRk-42">
          <mxGeometry relative="1" as="geometry">
            <mxPoint x="160" y="500" as="sourcePoint" />
          </mxGeometry>
        </mxCell>
        <mxCell id="Mu6bl-6abntceN2pBHRk-47" value="" style="edgeStyle=orthogonalEdgeStyle;rounded=0;orthogonalLoop=1;jettySize=auto;html=1;" edge="1" parent="WIyWlLk6GJQsqaUBKTNV-1" source="Mu6bl-6abntceN2pBHRk-42" target="Mu6bl-6abntceN2pBHRk-46">
          <mxGeometry relative="1" as="geometry" />
        </mxCell>
        <mxCell id="Mu6bl-6abntceN2pBHRk-58" value="是" style="edgeLabel;html=1;align=center;verticalAlign=middle;resizable=0;points=[];" vertex="1" connectable="0" parent="Mu6bl-6abntceN2pBHRk-47">
          <mxGeometry x="-0.1442" y="1" relative="1" as="geometry">
            <mxPoint as="offset" />
          </mxGeometry>
        </mxCell>
        <mxCell id="Mu6bl-6abntceN2pBHRk-62" value="" style="edgeStyle=orthogonalEdgeStyle;rounded=0;orthogonalLoop=1;jettySize=auto;html=1;" edge="1" parent="WIyWlLk6GJQsqaUBKTNV-1" source="Mu6bl-6abntceN2pBHRk-42" target="Mu6bl-6abntceN2pBHRk-61">
          <mxGeometry relative="1" as="geometry" />
        </mxCell>
        <mxCell id="Mu6bl-6abntceN2pBHRk-63" value="否" style="edgeLabel;html=1;align=center;verticalAlign=middle;resizable=0;points=[];" vertex="1" connectable="0" parent="Mu6bl-6abntceN2pBHRk-62">
          <mxGeometry x="-0.1905" y="1" relative="1" as="geometry">
            <mxPoint as="offset" />
          </mxGeometry>
        </mxCell>
        <mxCell id="Mu6bl-6abntceN2pBHRk-42" value="规定时间内是否被接受?" style="rhombus;whiteSpace=wrap;html=1;rounded=0;" vertex="1" parent="WIyWlLk6GJQsqaUBKTNV-1">
          <mxGeometry x="120" y="570" width="80" height="80" as="geometry" />
        </mxCell>
        <mxCell id="Mu6bl-6abntceN2pBHRk-49" value="" style="edgeStyle=orthogonalEdgeStyle;rounded=0;orthogonalLoop=1;jettySize=auto;html=1;" edge="1" parent="WIyWlLk6GJQsqaUBKTNV-1" source="Mu6bl-6abntceN2pBHRk-46" target="Mu6bl-6abntceN2pBHRk-48">
          <mxGeometry relative="1" as="geometry" />
        </mxCell>
        <mxCell id="Mu6bl-6abntceN2pBHRk-46" value="订单状态变为accepted" style="whiteSpace=wrap;html=1;rounded=0;" vertex="1" parent="WIyWlLk6GJQsqaUBKTNV-1">
          <mxGeometry x="100" y="740" width="120" height="60" as="geometry" />
        </mxCell>
        <mxCell id="Mu6bl-6abntceN2pBHRk-51" value="" style="edgeStyle=orthogonalEdgeStyle;rounded=0;orthogonalLoop=1;jettySize=auto;html=1;" edge="1" parent="WIyWlLk6GJQsqaUBKTNV-1" source="Mu6bl-6abntceN2pBHRk-48" target="Mu6bl-6abntceN2pBHRk-50">
          <mxGeometry relative="1" as="geometry" />
        </mxCell>
        <mxCell id="Mu6bl-6abntceN2pBHRk-59" value="是" style="edgeLabel;html=1;align=center;verticalAlign=middle;resizable=0;points=[];" vertex="1" connectable="0" parent="Mu6bl-6abntceN2pBHRk-51">
          <mxGeometry x="-0.0553" y="1" relative="1" as="geometry">
            <mxPoint as="offset" />
          </mxGeometry>
        </mxCell>
        <mxCell id="Mu6bl-6abntceN2pBHRk-81" style="edgeStyle=orthogonalEdgeStyle;rounded=0;orthogonalLoop=1;jettySize=auto;html=1;exitX=1;exitY=0.5;exitDx=0;exitDy=0;entryX=0;entryY=0.5;entryDx=0;entryDy=0;" edge="1" parent="WIyWlLk6GJQsqaUBKTNV-1" source="Mu6bl-6abntceN2pBHRk-48" target="Mu6bl-6abntceN2pBHRk-74">
          <mxGeometry relative="1" as="geometry" />
        </mxCell>
        <mxCell id="Mu6bl-6abntceN2pBHRk-82" value="否" style="edgeLabel;html=1;align=center;verticalAlign=middle;resizable=0;points=[];" vertex="1" connectable="0" parent="Mu6bl-6abntceN2pBHRk-81">
          <mxGeometry x="-0.1005" y="2" relative="1" as="geometry">
            <mxPoint as="offset" />
          </mxGeometry>
        </mxCell>
        <mxCell id="Mu6bl-6abntceN2pBHRk-48" value="规定时间内是否已付款" style="rhombus;whiteSpace=wrap;html=1;rounded=0;" vertex="1" parent="WIyWlLk6GJQsqaUBKTNV-1">
          <mxGeometry x="120" y="870" width="80" height="80" as="geometry" />
        </mxCell>
        <mxCell id="Mu6bl-6abntceN2pBHRk-53" value="" style="edgeStyle=orthogonalEdgeStyle;rounded=0;orthogonalLoop=1;jettySize=auto;html=1;" edge="1" parent="WIyWlLk6GJQsqaUBKTNV-1" source="Mu6bl-6abntceN2pBHRk-50" target="Mu6bl-6abntceN2pBHRk-52">
          <mxGeometry relative="1" as="geometry" />
        </mxCell>
        <mxCell id="Mu6bl-6abntceN2pBHRk-50" value="订单状态变为paid" style="whiteSpace=wrap;html=1;rounded=0;" vertex="1" parent="WIyWlLk6GJQsqaUBKTNV-1">
          <mxGeometry x="100" y="1040" width="120" height="60" as="geometry" />
        </mxCell>
        <mxCell id="Mu6bl-6abntceN2pBHRk-55" value="" style="edgeStyle=orthogonalEdgeStyle;rounded=0;orthogonalLoop=1;jettySize=auto;html=1;" edge="1" parent="WIyWlLk6GJQsqaUBKTNV-1" source="Mu6bl-6abntceN2pBHRk-52" target="Mu6bl-6abntceN2pBHRk-54">
          <mxGeometry relative="1" as="geometry" />
        </mxCell>
        <mxCell id="Mu6bl-6abntceN2pBHRk-52" value="..." style="whiteSpace=wrap;html=1;rounded=0;" vertex="1" parent="WIyWlLk6GJQsqaUBKTNV-1">
          <mxGeometry x="100" y="1180" width="120" height="60" as="geometry" />
        </mxCell>
        <mxCell id="Mu6bl-6abntceN2pBHRk-57" value="" style="edgeStyle=orthogonalEdgeStyle;rounded=0;orthogonalLoop=1;jettySize=auto;html=1;" edge="1" parent="WIyWlLk6GJQsqaUBKTNV-1" source="Mu6bl-6abntceN2pBHRk-54" target="Mu6bl-6abntceN2pBHRk-56">
          <mxGeometry relative="1" as="geometry" />
        </mxCell>
        <mxCell id="Mu6bl-6abntceN2pBHRk-60" value="是" style="edgeLabel;html=1;align=center;verticalAlign=middle;resizable=0;points=[];" vertex="1" connectable="0" parent="Mu6bl-6abntceN2pBHRk-57">
          <mxGeometry x="-0.1442" y="-1" relative="1" as="geometry">
            <mxPoint as="offset" />
          </mxGeometry>
        </mxCell>
        <mxCell id="Mu6bl-6abntceN2pBHRk-92" style="edgeStyle=orthogonalEdgeStyle;rounded=0;orthogonalLoop=1;jettySize=auto;html=1;exitX=1;exitY=0.5;exitDx=0;exitDy=0;entryX=0;entryY=0.5;entryDx=0;entryDy=0;" edge="1" parent="WIyWlLk6GJQsqaUBKTNV-1" source="Mu6bl-6abntceN2pBHRk-54" target="Mu6bl-6abntceN2pBHRk-85">
          <mxGeometry relative="1" as="geometry" />
        </mxCell>
        <mxCell id="Mu6bl-6abntceN2pBHRk-54" value="规定时间内是否评价?" style="rhombus;whiteSpace=wrap;html=1;rounded=0;" vertex="1" parent="WIyWlLk6GJQsqaUBKTNV-1">
          <mxGeometry x="120" y="1310" width="80" height="80" as="geometry" />
        </mxCell>
        <mxCell id="Mu6bl-6abntceN2pBHRk-56" value="订单状态变为已评价" style="whiteSpace=wrap;html=1;rounded=0;" vertex="1" parent="WIyWlLk6GJQsqaUBKTNV-1">
          <mxGeometry x="100" y="1480" width="120" height="60" as="geometry" />
        </mxCell>
        <mxCell id="Mu6bl-6abntceN2pBHRk-67" value="" style="edgeStyle=orthogonalEdgeStyle;rounded=0;orthogonalLoop=1;jettySize=auto;html=1;" edge="1" parent="WIyWlLk6GJQsqaUBKTNV-1" source="Mu6bl-6abntceN2pBHRk-61" target="Mu6bl-6abntceN2pBHRk-66">
          <mxGeometry relative="1" as="geometry" />
        </mxCell>
        <mxCell id="Mu6bl-6abntceN2pBHRk-61" value="Redis对应Key过期&lt;div&gt;获取数据库订单信息&lt;/div&gt;" style="whiteSpace=wrap;html=1;rounded=0;" vertex="1" parent="WIyWlLk6GJQsqaUBKTNV-1">
          <mxGeometry x="260" y="580" width="120" height="60" as="geometry" />
        </mxCell>
        <mxCell id="Mu6bl-6abntceN2pBHRk-69" value="" style="edgeStyle=orthogonalEdgeStyle;rounded=0;orthogonalLoop=1;jettySize=auto;html=1;" edge="1" parent="WIyWlLk6GJQsqaUBKTNV-1" source="Mu6bl-6abntceN2pBHRk-66" target="Mu6bl-6abntceN2pBHRk-68">
          <mxGeometry relative="1" as="geometry" />
        </mxCell>
        <mxCell id="Mu6bl-6abntceN2pBHRk-70" value="是" style="edgeLabel;html=1;align=center;verticalAlign=middle;resizable=0;points=[];" vertex="1" connectable="0" parent="Mu6bl-6abntceN2pBHRk-69">
          <mxGeometry x="-0.0045" relative="1" as="geometry">
            <mxPoint as="offset" />
          </mxGeometry>
        </mxCell>
        <mxCell id="Mu6bl-6abntceN2pBHRk-72" value="" style="edgeStyle=orthogonalEdgeStyle;rounded=0;orthogonalLoop=1;jettySize=auto;html=1;" edge="1" parent="WIyWlLk6GJQsqaUBKTNV-1" source="Mu6bl-6abntceN2pBHRk-66" target="Mu6bl-6abntceN2pBHRk-71">
          <mxGeometry relative="1" as="geometry" />
        </mxCell>
        <mxCell id="Mu6bl-6abntceN2pBHRk-66" value="数据库中订单状态是否为创建?" style="rhombus;whiteSpace=wrap;html=1;rounded=0;" vertex="1" parent="WIyWlLk6GJQsqaUBKTNV-1">
          <mxGeometry x="480" y="570" width="80" height="80" as="geometry" />
        </mxCell>
        <mxCell id="Mu6bl-6abntceN2pBHRk-68" value="修改为已过期未接受" style="whiteSpace=wrap;html=1;rounded=0;" vertex="1" parent="WIyWlLk6GJQsqaUBKTNV-1">
          <mxGeometry x="460" y="740" width="120" height="60" as="geometry" />
        </mxCell>
        <mxCell id="Mu6bl-6abntceN2pBHRk-71" value="订单状态改变&lt;div&gt;不做操作&lt;/div&gt;" style="whiteSpace=wrap;html=1;rounded=0;" vertex="1" parent="WIyWlLk6GJQsqaUBKTNV-1">
          <mxGeometry x="620" y="580" width="120" height="60" as="geometry" />
        </mxCell>
        <mxCell id="Mu6bl-6abntceN2pBHRk-73" value="" style="edgeStyle=orthogonalEdgeStyle;rounded=0;orthogonalLoop=1;jettySize=auto;html=1;" edge="1" parent="WIyWlLk6GJQsqaUBKTNV-1" source="Mu6bl-6abntceN2pBHRk-74" target="Mu6bl-6abntceN2pBHRk-78">
          <mxGeometry relative="1" as="geometry" />
        </mxCell>
        <mxCell id="Mu6bl-6abntceN2pBHRk-74" value="Redis对应Key过期&lt;div&gt;获取数据库订单信息&lt;/div&gt;" style="whiteSpace=wrap;html=1;rounded=0;" vertex="1" parent="WIyWlLk6GJQsqaUBKTNV-1">
          <mxGeometry x="260" y="880" width="120" height="60" as="geometry" />
        </mxCell>
        <mxCell id="Mu6bl-6abntceN2pBHRk-75" value="" style="edgeStyle=orthogonalEdgeStyle;rounded=0;orthogonalLoop=1;jettySize=auto;html=1;" edge="1" parent="WIyWlLk6GJQsqaUBKTNV-1" source="Mu6bl-6abntceN2pBHRk-78" target="Mu6bl-6abntceN2pBHRk-79">
          <mxGeometry relative="1" as="geometry" />
        </mxCell>
        <mxCell id="Mu6bl-6abntceN2pBHRk-76" value="是" style="edgeLabel;html=1;align=center;verticalAlign=middle;resizable=0;points=[];" vertex="1" connectable="0" parent="Mu6bl-6abntceN2pBHRk-75">
          <mxGeometry x="-0.0045" relative="1" as="geometry">
            <mxPoint as="offset" />
          </mxGeometry>
        </mxCell>
        <mxCell id="Mu6bl-6abntceN2pBHRk-77" value="" style="edgeStyle=orthogonalEdgeStyle;rounded=0;orthogonalLoop=1;jettySize=auto;html=1;" edge="1" parent="WIyWlLk6GJQsqaUBKTNV-1" source="Mu6bl-6abntceN2pBHRk-78" target="Mu6bl-6abntceN2pBHRk-80">
          <mxGeometry relative="1" as="geometry" />
        </mxCell>
        <mxCell id="Mu6bl-6abntceN2pBHRk-83" value="是" style="edgeLabel;html=1;align=center;verticalAlign=middle;resizable=0;points=[];" vertex="1" connectable="0" parent="Mu6bl-6abntceN2pBHRk-77">
          <mxGeometry x="-0.0085" y="-3" relative="1" as="geometry">
            <mxPoint as="offset" />
          </mxGeometry>
        </mxCell>
        <mxCell id="Mu6bl-6abntceN2pBHRk-78" value="数据库中订单状态是否为已接受?" style="rhombus;whiteSpace=wrap;html=1;rounded=0;" vertex="1" parent="WIyWlLk6GJQsqaUBKTNV-1">
          <mxGeometry x="480" y="870" width="80" height="80" as="geometry" />
        </mxCell>
        <mxCell id="Mu6bl-6abntceN2pBHRk-79" value="修改为已过期未付款" style="whiteSpace=wrap;html=1;rounded=0;" vertex="1" parent="WIyWlLk6GJQsqaUBKTNV-1">
          <mxGeometry x="460" y="1040" width="120" height="60" as="geometry" />
        </mxCell>
        <mxCell id="Mu6bl-6abntceN2pBHRk-80" value="订单状态改变&lt;div&gt;不做操作&lt;/div&gt;" style="whiteSpace=wrap;html=1;rounded=0;" vertex="1" parent="WIyWlLk6GJQsqaUBKTNV-1">
          <mxGeometry x="620" y="880" width="120" height="60" as="geometry" />
        </mxCell>
        <mxCell id="Mu6bl-6abntceN2pBHRk-84" value="" style="edgeStyle=orthogonalEdgeStyle;rounded=0;orthogonalLoop=1;jettySize=auto;html=1;" edge="1" parent="WIyWlLk6GJQsqaUBKTNV-1" source="Mu6bl-6abntceN2pBHRk-85" target="Mu6bl-6abntceN2pBHRk-89">
          <mxGeometry relative="1" as="geometry" />
        </mxCell>
        <mxCell id="Mu6bl-6abntceN2pBHRk-85" value="Redis对应Key过期&lt;div&gt;获取数据库订单信息&lt;/div&gt;" style="whiteSpace=wrap;html=1;rounded=0;" vertex="1" parent="WIyWlLk6GJQsqaUBKTNV-1">
          <mxGeometry x="260" y="1320" width="120" height="60" as="geometry" />
        </mxCell>
        <mxCell id="Mu6bl-6abntceN2pBHRk-86" value="" style="edgeStyle=orthogonalEdgeStyle;rounded=0;orthogonalLoop=1;jettySize=auto;html=1;" edge="1" parent="WIyWlLk6GJQsqaUBKTNV-1" source="Mu6bl-6abntceN2pBHRk-89" target="Mu6bl-6abntceN2pBHRk-90">
          <mxGeometry relative="1" as="geometry" />
        </mxCell>
        <mxCell id="Mu6bl-6abntceN2pBHRk-87" value="是" style="edgeLabel;html=1;align=center;verticalAlign=middle;resizable=0;points=[];" vertex="1" connectable="0" parent="Mu6bl-6abntceN2pBHRk-86">
          <mxGeometry x="-0.0045" relative="1" as="geometry">
            <mxPoint as="offset" />
          </mxGeometry>
        </mxCell>
        <mxCell id="Mu6bl-6abntceN2pBHRk-88" value="" style="edgeStyle=orthogonalEdgeStyle;rounded=0;orthogonalLoop=1;jettySize=auto;html=1;" edge="1" parent="WIyWlLk6GJQsqaUBKTNV-1" source="Mu6bl-6abntceN2pBHRk-89" target="Mu6bl-6abntceN2pBHRk-91">
          <mxGeometry relative="1" as="geometry" />
        </mxCell>
        <mxCell id="Mu6bl-6abntceN2pBHRk-89" value="数据库中订单状态是否为未评价?" style="rhombus;whiteSpace=wrap;html=1;rounded=0;" vertex="1" parent="WIyWlLk6GJQsqaUBKTNV-1">
          <mxGeometry x="480" y="1310" width="80" height="80" as="geometry" />
        </mxCell>
        <mxCell id="Mu6bl-6abntceN2pBHRk-90" value="修改为已过期未评价" style="whiteSpace=wrap;html=1;rounded=0;" vertex="1" parent="WIyWlLk6GJQsqaUBKTNV-1">
          <mxGeometry x="460" y="1480" width="120" height="60" as="geometry" />
        </mxCell>
        <mxCell id="Mu6bl-6abntceN2pBHRk-91" value="订单状态改变&lt;div&gt;不做操作&lt;/div&gt;" style="whiteSpace=wrap;html=1;rounded=0;" vertex="1" parent="WIyWlLk6GJQsqaUBKTNV-1">
          <mxGeometry x="620" y="1320" width="120" height="60" as="geometry" />
        </mxCell>
      </root>
    </mxGraphModel>
  </diagram>
</mxfile>
